<?xml version="1.0" encoding="UTF-8"?>
<svg xmlns="http://www.w3.org/2000/svg" version="1.1" width="225px" height="225px" style="shape-rendering:geometricPrecision; text-rendering:geometricPrecision; image-rendering:optimizeQuality; fill-rule:evenodd; clip-rule:evenodd" xmlns:xlink="http://www.w3.org/1999/xlink">
<g><path style="opacity:1" fill="none" d="M -0.5,-0.5 C 74.5,-0.5 149.5,-0.5 224.5,-0.5C 224.5,74.5 224.5,149.5 224.5,224.5C 189.167,224.5 153.833,224.5 118.5,224.5C 146.367,208.892 174.034,192.725 201.5,176C 206.332,171.168 209.165,165.335 210,158.5C 210.667,127.167 210.667,95.8333 210,64.5C 208.056,57.4501 204.222,51.6167 198.5,47C 173.833,32.3333 149.167,17.6667 124.5,3C 114.798,-0.878415 105.464,-0.211749 96.5,5C 72.5,19.3333 48.5,33.6667 24.5,48C 19.0826,52.6658 15.5826,58.4991 14,65.5C 13.3333,96.5 13.3333,127.5 14,158.5C 15.3942,166.457 19.2275,172.957 25.5,178C 51.9288,193.54 78.2621,209.04 104.5,224.5C 69.5,224.5 34.5,224.5 -0.5,224.5C -0.5,149.5 -0.5,74.5 -0.5,-0.5 Z"/></g>
<g><path style="opacity:1" fill="white" d="M 118.5,224.5 C 113.833,224.5 109.167,224.5 104.5,224.5C 78.2621,209.04 51.9288,193.54 25.5,178C 19.2275,172.957 15.3942,166.457 14,158.5C 13.3333,127.5 13.3333,96.5 14,65.5C 15.5826,58.4991 19.0826,52.6658 24.5,48C 48.5,33.6667 72.5,19.3333 96.5,5C 105.464,-0.211749 114.798,-0.878415 124.5,3C 149.167,17.6667 173.833,32.3333 198.5,47C 204.222,51.6167 208.056,57.4501 210,64.5C 210.667,95.8333 210.667,127.167 210,158.5C 209.165,165.335 206.332,171.168 201.5,176C 174.034,192.725 146.367,208.892 118.5,224.5 Z"/></g>
<g><path style="opacity:1" fill="none" d="M 105.5,5.5 C 111.732,4.93864 117.732,5.77197 123.5,8C 148.667,23.1667 173.833,38.3333 199,53.5C 202.066,56.6254 203.733,60.2921 204,64.5C 199.115,61.7944 194.282,61.9611 189.5,65C 166.833,79 144.167,93 121.5,107C 115.797,110.368 111.963,115.201 110,121.5C 109.333,151.833 109.333,182.167 110,212.5C 110.991,215.66 112.824,218.16 115.5,220C 110.166,220.751 105.166,219.751 100.5,217C 77.6651,203.081 54.6651,189.415 31.5,176C 25.0343,172.206 20.8677,166.706 19,159.5C 18.3333,127.833 18.3333,96.1667 19,64.5C 20.802,59.0709 23.9686,54.5709 28.5,51C 54.2622,35.7936 79.9289,20.6269 105.5,5.5 Z"/></g>
<g><path style="opacity:1" fill="black" d="M 140.5,123.5 C 141.165,125.698 141.832,128.031 142.5,130.5C 145.216,128.914 147.55,129.247 149.5,131.5C 148.423,133.729 147.756,136.063 147.5,138.5C 141.796,137.436 137.629,139.436 135,144.5C 134.28,146.112 134.446,147.612 135.5,149C 149.251,148.988 153.751,155.488 149,168.5C 147.77,171.732 145.77,174.399 143,176.5C 142.667,179.167 142.333,181.833 142,184.5C 137.619,189.03 135.785,188.03 136.5,181.5C 127.963,184.466 125.629,181.966 129.5,174C 138.8,174.65 143.3,170.483 143,161.5C 138.898,160.15 134.732,158.984 130.5,158C 127.091,153.553 126.591,148.719 129,143.5C 130.608,140.228 132.608,137.228 135,134.5C 134.376,129.457 136.21,125.79 140.5,123.5 Z"/></g>
<g><path style="opacity:1" fill="black" d="M 177.5,162.5 C 179.766,164.193 180.1,166.36 178.5,169C 172.391,173.051 166.058,176.551 159.5,179.5C 159.201,177.396 159.534,175.396 160.5,173.5C 166.402,170.058 172.068,166.392 177.5,162.5 Z"/></g>
</svg>
