<?xml version="1.0" encoding="UTF-8"?>
<svg
        fill="white"
        xmlns="http://www.w3.org/2000/svg"
        version="1.1"
        width="100px"
        height="100px"
        viewBox="0 0 1024 1024"
        preserveAspectRatio="xMidYMid meet"
        style="shape-rendering:geometricPrecision; text-rendering:geometricPrecision; image-rendering:optimizeQuality; fill-rule:evenodd; clip-rule:evenodd;"
        xmlns:xlink="http://www.w3.org/1999/xlink">
<g><path style="opacity:0.984" d="M 452.5,-0.5 C 488.5,-0.5 524.5,-0.5 560.5,-0.5C 560.5,33.1667 560.5,66.8333 560.5,100.5C 524.5,100.5 488.5,100.5 452.5,100.5C 452.5,66.8333 452.5,33.1667 452.5,-0.5 Z"/></g>
<g><path style="opacity:0.179" d="M 452.5,119.5 C 488.329,118.502 524.329,118.168 560.5,118.5C 560.5,151.833 560.5,185.167 560.5,218.5C 559.502,185.671 559.168,152.671 559.5,119.5C 523.833,119.5 488.167,119.5 452.5,119.5 Z"/></g>
<g><path style="opacity:0.984" d="M 203.5,118.5 C 239.167,118.5 274.833,118.5 310.5,118.5C 310.5,152.5 310.5,186.5 310.5,220.5C 274.833,220.5 239.167,220.5 203.5,220.5C 203.5,186.5 203.5,152.5 203.5,118.5 Z"/></g>
<g><path style="opacity:0.984" d="M 328.5,118.5 C 364.167,118.5 399.833,118.5 435.5,118.5C 435.5,152.5 435.5,186.5 435.5,220.5C 399.833,220.5 364.167,220.5 328.5,220.5C 328.5,186.5 328.5,152.5 328.5,118.5 Z"/></g>
<g><path style="opacity:0.991" d="M 452.5,119.5 C 488.167,119.5 523.833,119.5 559.5,119.5C 559.168,152.671 559.502,185.671 560.5,218.5C 524.849,220.494 488.849,221.16 452.5,220.5C 452.5,186.833 452.5,153.167 452.5,119.5 Z"/></g>
<g><path style="opacity:0.996" d="M 1023.5,292.5 C 1023.5,294.167 1023.5,295.833 1023.5,297.5C 1017.74,308.565 1012.24,319.899 1007,331.5C 992.574,355.594 972.741,373.76 947.5,386C 920.792,396.617 893.125,400.95 864.5,399C 821.023,511.007 748.356,598.674 646.5,662C 637.728,666.415 629.062,670.915 620.5,675.5C 618.821,675.285 617.821,675.952 617.5,677.5C 615.055,678.312 612.722,679.312 610.5,680.5C 608.821,680.285 607.821,680.952 607.5,682.5C 552.103,707.694 494.103,724.527 433.5,733C 414.674,734.742 396.008,736.575 377.5,738.5C 353.5,738.5 329.5,738.5 305.5,738.5C 252.231,735.101 201.897,721.268 154.5,697C 85.0765,655.509 38.5765,595.675 15,517.5C 11.2401,503.611 7.90673,489.611 5,475.5C 3.38057,462.662 1.54724,449.995 -0.5,437.5C -0.5,417.167 -0.5,396.833 -0.5,376.5C 0.940257,370.645 2.27359,364.645 3.5,358.5C 238.834,358.667 474.167,358.5 709.5,358C 729.632,357.133 748.966,352.8 767.5,345C 770.173,343.999 772.507,342.499 774.5,340.5C 760.822,317.785 754.489,293.119 755.5,266.5C 754.808,220.306 768.974,179.64 798,144.5C 825.584,162.083 848.584,184.416 867,211.5C 876.531,228.264 882.698,246.264 885.5,265.5C 898.654,264.378 911.821,263.378 925,262.5C 949.451,262.353 972.951,266.853 995.5,276C 1004.48,282.157 1013.81,287.657 1023.5,292.5 Z"/></g>
<g><path style="opacity:0.988" d="M 79.5,238.5 C 114.833,238.5 150.167,238.5 185.5,238.5C 185.5,272.167 185.5,305.833 185.5,339.5C 150.167,339.5 114.833,339.5 79.5,339.5C 79.5,305.833 79.5,272.167 79.5,238.5 Z"/></g>
<g><path style="opacity:0.976" d="M 203.5,238.5 C 239.167,238.5 274.833,238.5 310.5,238.5C 310.5,272.5 310.5,306.5 310.5,340.5C 274.833,340.5 239.167,340.5 203.5,340.5C 203.5,306.5 203.5,272.5 203.5,238.5 Z"/></g>
<g><path style="opacity:0.976" d="M 328.5,238.5 C 364.167,238.5 399.833,238.5 435.5,238.5C 435.5,272.5 435.5,306.5 435.5,340.5C 399.833,340.5 364.167,340.5 328.5,340.5C 328.5,306.5 328.5,272.5 328.5,238.5 Z"/></g>
<g><path style="opacity:0.983" d="M 453.5,238.5 C 489.167,238.5 524.833,238.5 560.5,238.5C 560.5,272.167 560.5,305.833 560.5,339.5C 525.165,339.667 489.832,339.5 454.5,339C 453.504,305.573 453.171,272.073 453.5,238.5 Z"/></g>
<g><path style="opacity:0.983" d="M 684.5,238.5 C 684.829,272.073 684.496,305.573 683.5,339C 648.168,339.5 612.835,339.667 577.5,339.5C 577.5,305.833 577.5,272.167 577.5,238.5C 613.167,238.5 648.833,238.5 684.5,238.5 Z"/></g>
<g><path style="opacity:0.08" d="M 453.5,238.5 C 453.171,272.073 453.504,305.573 454.5,339C 489.832,339.5 525.165,339.667 560.5,339.5C 524.671,340.498 488.671,340.832 452.5,340.5C 452.168,306.329 452.502,272.329 453.5,238.5 Z"/></g>
<g><path style="opacity:0.081" d="M 684.5,238.5 C 685.498,272.329 685.832,306.329 685.5,340.5C 649.329,340.832 613.329,340.498 577.5,339.5C 612.835,339.667 648.168,339.5 683.5,339C 684.496,305.573 684.829,272.073 684.5,238.5 Z"/></g>
<g><path style="opacity:0.078" d="M 79.5,238.5 C 79.5,272.167 79.5,305.833 79.5,339.5C 114.833,339.5 150.167,339.5 185.5,339.5C 150.004,340.498 114.337,340.832 78.5,340.5C 78.1683,306.329 78.5017,272.329 79.5,238.5 Z"/></g>
<g><path style="opacity:0.265" d="M 620.5,675.5 C 619.71,676.401 618.71,677.068 617.5,677.5C 617.821,675.952 618.821,675.285 620.5,675.5 Z"/></g>
<g><path style="opacity:0.265" d="M 610.5,680.5 C 609.71,681.401 608.71,682.068 607.5,682.5C 607.821,680.952 608.821,680.285 610.5,680.5 Z"/></g>
</svg>
