<?xml version="1.0" encoding="UTF-8"?>
<svg version="1.1" xmlns="http://www.w3.org/2000/svg" width="512" height="512">
<path d="M0 0 C116.16 0 232.32 0 352 0 C350.02 2.31 348.04 4.62 346 7 C344.72746223 9.00730174 343.47787247 11.02936824 342.25367737 13.06651306 C336.22562156 21.99175051 328.67074144 29.9545863 317.97244024 32.80730295 C299.80284124 36.13106864 280.62209789 35.01422691 262.22764698 34.58492806 C254.21779296 34.402342 246.21268889 34.38477006 238.20031738 34.3651123 C217.11141899 34.23450248 196.0243297 33.885467 174.9375 33.5625 C127.768125 33.046875 80.59875 32.53125 32 32 C32 158.72 32 285.44 32 416 C158.72 416 285.44 416 416 416 C414.77450466 322.28322115 414.77450466 322.28322115 413.20727539 228.57202148 C413.06726074 210.36730957 413.06726074 210.36730957 413.04124451 201.82069397 C413.01256926 195.90056788 412.8993927 189.98979372 412.72715759 184.07228088 C411.18941669 129.61015998 411.18941669 129.61015998 425.13360757 113.65309221 C431.65186382 106.82129134 438.96699621 100.95148497 447 96 C447.33 96 447.66 96 448 96 C448 212.16 448 328.32 448 448 C300.16 448 152.32 448 0 448 C0 300.16 0 152.32 0 0 Z " fill="#434343" transform="translate(0,64)"/>
<path d="M0 0 C52.8 0 105.6 0 160 0 C160 52.8 160 105.6 160 160 C155.66748333 156.28641428 151.61349268 152.73719114 147.61547852 148.72900391 C147.1267778 148.24044922 146.63807709 147.75189453 146.13456726 147.24853516 C144.54695997 145.66024061 142.96290763 144.06845249 141.37890625 142.4765625 C140.26811831 141.36390615 139.1571069 140.25147284 138.04588318 139.13925171 C135.14211066 136.2316873 132.24135564 133.32113095 129.34124756 130.40991211 C126.37321737 127.43159571 123.40230338 124.45615894 120.43164062 121.48046875 C114.61828917 115.65643877 108.80812666 109.8292405 103 104 C97.43828698 108.62950645 92.30749242 113.56532281 87.21272278 118.70066833 C85.92166572 119.9957355 85.92166572 119.9957355 84.6045267 121.31696564 C82.72537281 123.20268076 80.84717479 125.08929272 78.97055817 126.97752762 C75.91655175 130.05042279 72.85899542 133.11977053 69.80101013 136.18870544 C65.93700873 140.0670673 62.07396276 143.94637673 58.21204128 147.82680971 C50.63078879 155.44438303 43.0432978 163.05571496 35.45353699 170.66481018 C34.25764424 171.8638132 33.0617552 173.06281991 31.86586982 174.26183027 C30.05399088 176.07843457 28.24210835 177.89503529 26.43021113 179.71162136 C19.6094164 186.55011779 12.78931817 193.3893084 5.9699707 200.22924805 C5.34694935 200.85414645 4.723928 201.47904485 4.08202722 202.12287957 C-6.03413374 212.26999082 -16.14291145 222.42443045 -26.24947306 232.58110153 C-36.62763091 243.01027872 -47.01527002 253.42994546 -57.41141778 263.84118992 C-63.82402861 270.26378365 -70.22880986 276.69399108 -76.62385116 283.13408 C-81.00021124 287.53991864 -85.38557092 291.93666156 -89.77824303 296.32623672 C-92.31479039 298.86156134 -94.84700589 301.40086359 -97.36854935 303.95111847 C-100.09687935 306.71031679 -102.84413962 309.45013879 -105.59367371 312.18821716 C-106.39434664 313.00413643 -107.19501958 313.82005569 -108.01995534 314.66069978 C-108.75511571 315.38652161 -109.49027608 316.11234344 -110.24771404 316.86015987 C-111.19663919 317.81274603 -111.19663919 317.81274603 -112.16473454 318.78457636 C-114 320 -114 320 -116.10437852 319.80172879 C-118.72485587 318.69343151 -120.30345928 317.09346601 -122.32543945 315.09448242 C-123.59113518 313.8526545 -123.59113518 313.8526545 -124.88240051 312.58573914 C-126.23418648 311.23425529 -126.23418648 311.23425529 -127.61328125 309.85546875 C-129.00669991 308.47347038 -129.00669991 308.47347038 -130.42826843 307.06355286 C-132.39107685 305.11417998 -134.34785716 303.15898083 -136.30102539 301.19995117 C-138.80740785 298.6876596 -141.33159266 296.19413343 -143.86102009 293.70507336 C-146.26902206 291.32908792 -148.65878617 288.93506809 -151.05078125 286.54296875 C-151.96209305 285.64805222 -152.87340485 284.75313568 -153.81233215 283.83110046 C-154.6403685 282.9937587 -155.46840485 282.15641693 -156.3215332 281.29370117 C-157.05781448 280.55947433 -157.79409576 279.8252475 -158.5526886 279.06877136 C-160 277 -160 277 -159.80800587 275.11132216 C-158.8064328 272.49420822 -157.50244492 271.12984031 -155.51921749 269.15007401 C-154.39283585 268.01473264 -154.39283585 268.01473264 -153.24369901 266.85645509 C-152.41005797 266.03155257 -151.57641693 265.20665005 -150.71751404 264.35675049 C-149.39928676 263.0346783 -149.39928676 263.0346783 -148.05442864 261.68589759 C-145.61071871 259.23809368 -143.16043994 256.79721695 -140.70719159 254.35899472 C-138.06441093 251.7291487 -135.43028425 249.09066011 -132.79510498 246.45320129 C-128.22734488 241.88386683 -123.65411656 237.32006476 -119.07714653 232.75995636 C-112.45959869 226.16677186 -105.85033347 219.56533584 -99.24307156 212.96184537 C-88.52345601 202.24879848 -77.79715568 191.5424706 -67.06665039 180.84033203 C-56.64191631 170.44312776 -46.22033234 160.04278265 -35.80297852 149.63818359 C-34.84006653 148.67645386 -34.84006653 148.67645386 -33.85770177 147.69529524 C-30.63734553 144.47885407 -27.41705123 141.2623509 -24.19678771 138.0458169 C2.52587956 111.35425847 29.25939652 84.67358863 56 58 C55.05559783 56.88940751 54.10992656 55.77989414 53.16373253 54.67082787 C52.63725038 54.05285029 52.11076823 53.43487271 51.56833208 52.79816854 C49.39110471 50.30187212 47.07781624 47.96610123 44.72900391 45.63134766 C44.24044922 45.14425323 43.75189453 44.65715881 43.24853516 44.15530396 C42.20208979 43.11262508 41.15449246 42.07110122 40.10582352 41.03065872 C38.44787566 39.38559865 36.79318131 37.73732569 35.13925171 36.08822632 C31.63732104 32.5976458 28.13143669 29.11105322 24.625 25.625 C20.53934968 21.56294529 16.45533281 17.49927536 12.37546921 13.43140793 C10.74213197 11.80457001 9.10582397 10.18076027 7.46939087 8.55703735 C6.47765755 7.56893313 5.48606244 6.58069017 4.49462891 5.59228516 C3.18940781 4.29491928 3.18940781 4.29491928 1.8578186 2.97134399 C0 1 0 1 0 0 Z " fill="#434343" transform="translate(352,0)"/>
</svg>
